HIERARCHY
ROOT Hips
{
	OFFSET -0.001795 -0.223333 0.028219
	CHANNELS 6 Xposition Yposition Zposition Zrotation Yrotation Xrotation 
	JOINT LeftUpLeg
	{
		OFFSET 0.069520 -0.091406 -0.006815
		CHANNELS 3 Zrotation Yrotation Xrotation
		JOINT LeftLeg
		{
			OFFSET 0.034277 -0.375199 -0.004496
			CHANNELS 3 Zrotation Yrotation Xrotation
			JOINT LeftFoot
			{
				OFFSET -0.013596 -0.397961 -0.043693
				CHANNELS 3 Zrotation Yrotation Xrotation
				JOINT LeftToe
				{
					OFFSET 0.026358 -0.055791 0.119288
					CHANNELS 3 Zrotation Yrotation Xrotation
					End Site
					{
						OFFSET 0.000000 0.000000 0.000000
					}
				}
			}
		}
	}
	JOINT RightUpLeg
	{
		OFFSET -0.067670 -0.090522 -0.004320
		CHANNELS 3 Zrotation Yrotation Xrotation
		JOINT RightLeg
		{
			OFFSET -0.038290 -0.382569 -0.008850
			CHANNELS 3 Zrotation Yrotation Xrotation
			JOINT RightFoot
			{
				OFFSET 0.015774 -0.398415 -0.042312
				CHANNELS 3 Zrotation Yrotation Xrotation
				JOINT RightToe
				{
					OFFSET -0.025372 -0.048144 0.123348
					CHANNELS 3 Zrotation Yrotation Xrotation
					End Site
					{
						OFFSET 0.000000 0.000000 0.000000
					}
				}
			}
		}
	}
	JOINT Spine
	{
		OFFSET -0.002533 0.108963 -0.026696
		CHANNELS 3 Zrotation Yrotation Xrotation
		JOINT Spine1
		{
			OFFSET 0.005487 0.135180 0.001092
			CHANNELS 3 Zrotation Yrotation Xrotation
			JOINT Spine2
			{
				OFFSET 0.001457 0.052922 0.025425
				CHANNELS 3 Zrotation Yrotation Xrotation
				JOINT Neck
				{
					OFFSET -0.002778 0.213870 -0.042857
					CHANNELS 3 Zrotation Yrotation Xrotation
					JOINT Head
					{
						OFFSET 0.005152 0.064970 0.051349
						CHANNELS 3 Zrotation Yrotation Xrotation
						End Site
						{
							OFFSET 0.000000 0.000000 0.000000
						}
					}
				}
				JOINT LeftShoulder
				{
					OFFSET 0.078845 0.121749 -0.034090
					CHANNELS 3 Zrotation Yrotation Xrotation
					JOINT LeftArm
					{
						OFFSET 0.090977 0.030469 -0.008868
						CHANNELS 3 Zrotation Yrotation Xrotation
						JOINT LeftForeArm
						{
							OFFSET 0.259612 -0.012772 -0.027456
							CHANNELS 3 Zrotation Yrotation Xrotation
							JOINT LeftHand
							{
								OFFSET 0.249234 0.008986 -0.001171
								CHANNELS 3 Zrotation Yrotation Xrotation
								End Site
								{
									OFFSET 0.000000 0.000000 0.000000
								}
							}
						}
					}
				}
				JOINT RightShoulder
				{
					OFFSET -0.081759 0.118833 -0.038615
					CHANNELS 3 Zrotation Yrotation Xrotation
					JOINT RightArm
					{
						OFFSET -0.096012 0.032551 -0.009143
						CHANNELS 3 Zrotation Yrotation Xrotation
						JOINT RightForeArm
						{
							OFFSET -0.253742 -0.013329 -0.021401
							CHANNELS 3 Zrotation Yrotation Xrotation
							JOINT RightHand
							{
								OFFSET -0.255298 0.007772 -0.005559
								CHANNELS 3 Zrotation Yrotation Xrotation
								End Site
								{
									OFFSET 0.000000 0.000000 0.000000
								}
							}
						}
					}
				}
			}
		}
	}
}
MOTION
Frames: 6
Frame Time: 0.050000
0.011469 0.954044 0.002897 -0.825770 -2.838544 9.452568 5.001592 -0.678091 -11.906281 -0.204083 -0.074017 3.289195 0.375455 4.450387 10.629792 0.000000 0.000000 0.000000 -1.668658 0.905870 -9.506139 -5.302626 0.310805 -2.419325 0.365354 -6.332981 16.828571 0.000000 0.000000 0.000000 5.683390 0.099552 -3.454617 -1.126218 0.547895 -2.713963 -7.334239 8.159563 -2.618020 13.946377 -8.111352 -9.425617 0.000000 0.000000 0.000000 -12.764369 -11.489785 2.388630 -45.671965 -27.218076 5.703313 -83.993126 -51.741410 45.945492 0.000000 0.000000 0.000000 12.068487 -0.110787 -0.006799 58.425467 12.220723 1.504261 100.507497 64.924284 82.012450 0.000000 0.000000 0.000000 
0.011339 0.954561 0.003647 -0.813046 -2.877363 9.333754 4.695272 -0.704150 -11.997511 0.297408 -0.160357 3.772905 0.395266 4.497378 10.681026 0.000000 0.000000 0.000000 -1.574677 0.901029 -9.423628 -5.473947 0.338004 -2.262824 0.401747 -6.299687 16.896080 0.000000 0.000000 0.000000 5.689073 0.078644 -3.212150 -1.015730 0.504351 -3.396805 -7.427241 8.697925 -2.482946 14.004994 -8.247545 -9.074434 0.000000 0.000000 0.000000 -12.409385 -11.328843 2.260651 -45.472884 -26.687512 5.440242 -84.335182 -53.186937 47.390880 0.000000 0.000000 0.000000 12.150690 -0.495817 -0.111890 58.556463 11.545440 1.173568 102.961568 64.333517 84.271760 0.000000 0.000000 0.000000 
0.011224 0.954675 0.005174 -0.877610 -2.753546 9.426805 4.489344 -0.715254 -11.827778 0.800990 -0.221298 3.447512 0.341870 4.420748 10.681422 0.000000 0.000000 0.000000 -1.354434 0.908588 -9.433846 -5.714943 0.363313 -2.205155 0.345301 -6.386217 16.923915 0.000000 0.000000 0.000000 5.905740 0.115428 -3.637168 -1.132166 0.554560 -3.301833 -7.334725 8.762596 -2.556707 13.805834 -8.092282 -9.107683 0.000000 0.000000 0.000000 -12.187307 -10.319753 1.814636 -45.388785 -26.234590 5.244668 -86.108892 -53.886392 49.332191 0.000000 0.000000 0.000000 11.743415 -1.227232 -0.460819 58.229469 10.600489 0.725520 105.953947 63.272713 86.346343 0.000000 0.000000 0.000000 
0.011233 0.954483 0.007390 -0.829313 -2.682043 9.318705 4.111678 -0.717737 -11.280915 1.352967 -0.277425 2.932079 0.308163 4.349145 10.598594 0.000000 0.000000 0.000000 -1.475988 0.858661 -8.930646 -5.584245 0.317525 -2.614629 0.313272 -6.408958 16.875817 0.000000 0.000000 0.000000 5.785887 0.136031 -3.831377 -0.876748 0.446932 -3.501639 -7.152894 8.855065 -2.464987 13.342643 -7.809800 -8.973326 0.000000 0.000000 0.000000 -11.762498 -9.245773 1.384026 -45.058798 -25.130782 4.750351 -90.470564 -54.994283 53.821330 0.000000 0.000000 0.000000 10.937106 -2.759616 -1.185522 57.106298 8.736018 -0.187093 111.395566 61.036136 89.931883 0.000000 0.000000 0.000000 
0.011255 0.954212 0.010034 -0.907054 -2.630969 9.308762 3.777286 -0.706072 -10.591394 2.070465 -0.331421 2.051061 0.287422 4.298515 10.525188 0.000000 0.000000 0.000000 -1.307861 0.836111 -8.636030 -5.731291 0.313480 -2.791272 0.286004 -6.424598 16.802703 0.000000 0.000000 0.000000 5.919714 0.183901 -4.335738 -0.832226 0.427267 -3.420440 -6.855968 8.277271 -2.358261 12.573411 -7.450879 -8.449074 0.000000 0.000000 0.000000 -11.695209 -7.324049 0.665864 -44.001783 -23.594086 4.038383 -97.304946 -55.098561 60.015455 0.000000 0.000000 0.000000 9.772448 -3.733072 -1.691826 55.393930 7.035827 -1.003524 117.214115 59.035462 94.008834 0.000000 0.000000 0.000000 
0.011388 0.953874 0.012707 -0.821417 -2.649039 9.126015 3.274988 -0.694020 -9.830451 2.737307 -0.379273 1.378465 0.288839 4.277788 10.445695 0.000000 0.000000 0.000000 -1.441714 0.787578 -8.142131 -5.679034 0.290070 -3.014073 0.273735 -6.396322 16.643591 0.000000 0.000000 0.000000 5.939982 0.231454 -4.790439 -0.858612 0.439263 -3.477106 -6.490231 8.037431 -2.057472 11.576507 -6.775367 -8.461438 0.000000 0.000000 0.000000 -10.703333 -5.627984 0.152362 -43.305309 -22.760562 3.577817 -105.257821 -55.703552 68.257407 0.000000 0.000000 0.000000 7.981876 -5.415674 -2.404725 53.017157 5.206760 -1.783398 125.308292 56.410500 100.900048 0.000000 0.000000 0.000000 
